HIERARCHY
ROOT Hips
{
	OFFSET 0.000000 0.000000 0.000000 
	CHANNELS 6 Xposition Yposition Zposition Yrotation Zrotation Xrotation 
	JOINT Lumbar
	{
		OFFSET 0.000000 0.000000 0.000000 
		CHANNELS 3 Zrotation Xrotation Yrotation
		JOINT Neck
		{
			OFFSET 0.000000 0.445665 0.000000 
			CHANNELS 3 Zrotation Xrotation Yrotation
			End Site
			{
				OFFSET 0.000000 0.227535 0.000000 
			}
		}
		JOINT RightShoulder
		{
			OFFSET 0.019635 0.377685 0.194865 
			CHANNELS 3 Zrotation Xrotation Yrotation
			JOINT RightElbow
			{
				OFFSET 0.000000 -0.243375 0.000000 
				CHANNELS 2 Zrotation Yrotation
				JOINT RightWrist
				{
					OFFSET 0.000000 -0.264825 0.000000 
					CHANNELS 2 Zrotation Xrotation
					End Site
					{
						OFFSET 0.006600 -0.176220 0.000990 
					}
				}
			}
		}
		JOINT LeftShoulder
		{
			OFFSET 0.019635 0.377685 -0.194865 
			CHANNELS 3 Zrotation Xrotation Yrotation
			JOINT LeftElbow
			{
				OFFSET 0.000000 -0.243375 0.000000 
				CHANNELS 2 Zrotation Yrotation
				JOINT LeftWrist
				{
					OFFSET 0.000000 -0.264825 0.000000 
					CHANNELS 2 Zrotation Xrotation
					End Site
					{
						OFFSET 0.006600 -0.176220 -0.000990 
					}
				}
			}
		}
	}
	JOINT RightHip
	{
		OFFSET 0.052140 -0.069960 0.075570 
		CHANNELS 3 Zrotation Xrotation Yrotation
		JOINT RightKnee
		{
			OFFSET 0.000000 -0.402270 0.000000 
			CHANNELS 1 Zrotation
			JOINT RightAnkle
			{
				OFFSET 0.000000 -0.404085 0.000000 
				CHANNELS 3 Zrotation Xrotation Yrotation
				End Site
				{
					OFFSET 0.204105 -0.089430 0.008415 
				}
			}
		}
	}
	JOINT LeftHip
	{
		OFFSET 0.052140 -0.069960 -0.075570 
		CHANNELS 3 Zrotation Xrotation Yrotation
		JOINT LeftKnee
		{
			OFFSET 0.000000 -0.402270 0.000000 
			CHANNELS 1 Zrotation
			JOINT LeftAnkle
			{
				OFFSET 0.000000 -0.404085 0.000000 
				CHANNELS 3 Zrotation Xrotation Yrotation
				End Site
				{
					OFFSET 0.204105 -0.089430 -0.008415 
				}
			}
		}
	}
}
MOTION
Frames: 11
Frame Time: 0.02
-0.38119 -0.39896 0.22294 29.6066 23.34583 -4.66592 10.41751 1.92506 -0.16045 -34.05788 0.89969 -2.11994 -42.97944 -22.26254 7.27711 68.75986 95.29074 7.73471 1.89793 -53.4021 7.34396 12.71365 76.83562 -94.23874 14.42428 0.17749 77.23421 -6.43087 -12.69925 -118.57277 -14.32347 -3.28318 -4.23394 64.54537 4.29749 2.28927 -81.57645 -11.34391 2.67441 3.76825
-0.38118 -0.39879 0.22257 29.74002 23.11655 -4.61381 10.40915 1.95266 0.11602 -34.37374 -0.04146 -2.11994 -42.96933 -22.35229 7.45916 68.69742 93.80353 7.38932 1.30377 -53.35263 7.56725 12.03097 77.03211 -93.20745 14.03363 0.36967 77.25241 -6.50368 -12.35624 -118.28992 -14.46937 -3.28823 -4.24465 64.93296 4.12206 2.04648 -83.10658 -11.18001 2.73552 3.79087
-0.38114 -0.3986 0.22211 29.90989 22.89765 -4.57384 10.39937 1.99489 0.43258 -34.67573 -0.93016 -2.11994 -43.0356 -22.47781 7.63914 68.66961 91.43215 6.9813 0.6385 -53.28291 7.72829 11.33221 77.18428 -91.65135 13.50669 0.66646 77.11251 -6.56798 -11.92101 -117.8166 -14.59201 -3.29701 -4.25614 65.28996 3.94243 1.82633 -84.51913 -11.03401 2.78642 3.80951
-0.38111 -0.39842 0.22169 30.06372 22.67308 -4.52871 10.39215 2.03095 0.73165 -34.98131 -1.83744 -2.11994 -43.06637 -22.58291 7.81369 68.62152 89.55479 6.60507 0.03337 -53.21716 7.90503 10.6577 77.34269 -90.41514 13.06067 0.89859 77.03624 -6.63788 -11.52738 -117.41548 -14.71847 -3.30353 -4.26659 65.6641 3.76873 1.60305 -85.98154 -10.88202 2.84056 3.82933
-0.38111 -0.39825 0.22126 30.21635 22.45269 -4.48201 10.37748 2.06502 1.02924 -35.29979 -2.76827 -2.11994 -43.10099 -22.70592 8.01638 68.59121 87.30519 6.21409 -0.69088 -53.17405 8.13414 9.90957 77.56095 -88.86906 12.54165 1.19595 76.99063 -6.70199 -11.13342 -117.06894 -14.87351 -3.3124 -4.27989 66.02389 3.57844 1.35113 -87.45595 -10.72077 2.90004 3.85146
-0.38103 -0.39806 0.22083 30.37976 22.22577 -4.44157 10.37731 2.10675 1.3383 -35.58604 -3.63726 -2.11994 -43.14439 -22.79994 8.15967 68.5326 85.61065 5.83922 -1.18494 -53.07838 8.2411 9.31054 77.64383 -87.82219 12.13709 1.38696 76.84645 -6.77505 -10.71922 -116.56661 -14.96346 -3.31726 -4.28745 66.40714 3.4213 1.16321 -88.87771 -10.58356 2.94601 3.86788
-0.38075 -0.39782 0.2204 30.56393 21.9809 -4.41433 10.42302 2.16516 1.6757 -35.8051 -4.34549 -2.11994 -43.20687 -22.80597 8.13719 68.38728 85.71072 5.52478 -1.00563 -52.84661 8.00869 9.14231 77.36037 -88.39111 12.11364 1.23399 76.4536 -6.8811 -10.2674 -115.67147 -14.8798 -3.31028 -4.27907 66.85552 3.35991 1.15211 -90.19291 -10.50309 2.95949 3.87042
-0.3804 -0.39757 0.21997 30.75758 21.72854 -4.39309 10.48232 2.23082 2.02198 -35.98867 -4.99331 -2.11994 -43.27281 -22.78156 8.05536 68.21227 86.38898 5.22899 -0.59585 -52.56152 7.65873 9.12237 76.94252 -89.45834 12.20422 0.97533 75.97079 -6.99521 -9.79938 -114.62915 -14.73157 -3.2991 -4.26489 67.32979 3.33147 1.20375 -91.45715 -10.44709 2.95944 3.86723
-0.38006 -0.39732 0.21955 30.94675 21.47804 -4.36993 10.53181 2.29389 2.35972 -36.17661 -5.67078 -2.11994 -43.3288 -22.77026 8.00175 68.05137 86.77162 4.92399 -0.30399 -52.29853 7.37365 9.02504 76.58832 -90.22074 12.22038 0.78244 75.53875 -7.10133 -9.34178 -113.66027 -14.61233 -3.28975 -4.2533 67.79699 3.28576 1.22243 -92.73963 -10.38336 2.96418 3.86611
-0.37978 -0.39707 0.21908 31.13783 21.23482 -4.34411 10.59667 2.35499 2.71759 -36.41421 -6.33836 -2.11994 -43.4241 -22.76252 7.94215 67.88993 87.26487 4.61871 0.04238 -52.04514 7.03753 8.9692 76.22214 -91.28995 12.32462 0.51971 75.05703 -7.22517 -8.868 -112.65462 -14.49289 -3.28089 -4.2419 68.24367 3.24935 1.25938 -94.04171 -10.30616 2.97422 3.86707
-0.37938 -0.39682 0.21872 31.32684 20.97402 -4.32467 10.63268 2.42111 3.0355 -36.5395 -7.01137 -2.11994 -43.43575 -22.74059 7.88178 67.72101 87.67336 4.32077 0.32912 -51.7577 6.78127 8.8625 75.84907 -91.85293 12.27758 0.37416 74.66246 -7.31445 -8.42529 -111.69608 -14.35996 -3.26992 -4.22876 68.73919 3.20174 1.27451 -95.28867 -10.26232 2.97024 3.86243
